<svg width="32" height="32" viewBox="0 0 64 64" fill="none" xmlns="http://www.w3.org/2000/svg">
  {/* Elegant protective watchful arch */}
  <path 
    d="M 8 44 C 8 20, 56 20, 56 44" 
    stroke="#00a896" 
    strokeWidth="2.5" 
    strokeLinecap="round" 
  />
  
  {/* Minimalist modern luxury sloped-roof house profile */}
  {/* Roof slab */}
  <path 
    d="M 14 34 L 38 22 L 48 30" 
    stroke="#081721" 
    strokeWidth="3.5" 
    strokeLinecap="round" 
    strokeLinejoin="round" 
  />
  {/* Main house frame */}
  <path 
    d="M 18 32 V 46 H 44 V 32.5" 
    stroke="#081721" 
    strokeWidth="2.5" 
    strokeLinecap="round" 
    strokeLinejoin="round" 
  />
  {/* Modern vertical glass window pane */}
  <rect 
    x="24" 
    y="36" 
    width="6" 
    height="10" 
    stroke="#081721" 
    strokeWidth="1.5" 
    rx="1" 
  />
  <line 
    x1="34" 
    y1="36" 
    x2="38" 
    y2="36" 
    stroke="#00a896" 
    strokeWidth="1.5" 
    strokeLinecap="round" 
  />

  {/* Stylized palm tree silhouette */}
  <path 
    d="M 49 46 Q 52 38 49 28" 
    stroke="#081721" 
    strokeWidth="2" 
    strokeLinecap="round" 
  />
  <path 
    d="M 49 28 Q 43 25 39 30 M 49 28 Q 46 20 44 14 M 49 28 Q 53 21 58 24 M 49 28 Q 55 28 58 35" 
    stroke="#00a896" 
    strokeWidth="1.5" 
    strokeLinecap="round" 
  />

  {/* Golden warm coastal sun accent */}
  <circle cx="32" cy="14" r="3" fill="#eab308" stroke="#eab308" strokeWidth="1" />
</svg>
